<?xml version="1.0" standalone="no"?>
<!DOCTYPE svg PUBLIC "-//W3C//DTD SVG 20010904//EN"
 "http://www.w3.org/TR/2001/REC-SVG-20010904/DTD/svg10.dtd">
<svg version="1.0" xmlns="http://www.w3.org/2000/svg"
 width="854.000000pt" height="980.000000pt" viewBox="0 0 854.000000 980.000000"
 preserveAspectRatio="xMidYMid meet">

<g transform="translate(0.000000,980.000000) scale(0.100000,-0.100000)"
fill="#000000" stroke="none">
<path d="M4060 9793 c-472 -37 -949 -198 -1335 -450 -327 -214 -632 -515 -842
-833 -531 -800 -637 -1802 -287 -2699 97 -247 274 -554 441 -761 169 -210 427
-447 647 -594 94 -63 97 -66 72 -75 -379 -145 -800 -388 -1135 -657 -159 -127
-426 -385 -559 -539 -658 -763 -1042 -1760 -1046 -2720 -1 -207 -1 -211 25
-266 107 -228 414 -265 569 -69 60 76 71 123 80 355 10 236 27 384 70 595 200
994 812 1861 1690 2392 517 314 1161 497 1741 498 717 0 1328 206 1852 623
880 700 1279 1840 1031 2945 -138 617 -483 1179 -979 1599 -375 317 -897 555
-1375 627 -213 32 -473 44 -660 29z m487 -698 c245 -32 455 -95 678 -205 789
-387 1273 -1199 1242 -2080 -12 -329 -82 -609 -226 -905 -264 -540 -723 -945
-1287 -1136 -295 -99 -651 -134 -961 -94 -1103 145 -1923 1088 -1923 2211 0
1139 855 2097 1980 2217 98 11 390 6 497 -8z"/>
<path d="M6950 3481 c-95 -29 -185 -115 -220 -209 -18 -46 -21 -72 -18 -137 6
-107 34 -160 155 -288 463 -493 780 -1102 912 -1755 43 -212 60 -347 75 -612
11 -204 16 -241 35 -281 35 -74 85 -125 159 -161 58 -29 76 -33 147 -33 133 0
232 59 296 177 l34 63 0 210 c-2 1026 -448 2114 -1175 2869 -132 137 -186 166
-300 165 -41 0 -86 -4 -100 -8z"/>
</g>
</svg>
